<svg width="147" height="167" viewBox="0 0 147 167" fill="none" xmlns="http://www.w3.org/2000/svg">
<g clip-path="url(#clip0_1_2)">
<rect width="147" height="167" rx="16" fill="white"/>
<path d="M31.538 96.4089C33.906 103.449 36.594 111.193 39.602 119.641C42.61 128.025 45.362 135.289 47.858 141.433C49.714 135.481 52.274 128.345 55.538 120.025C58.802 111.641 61.842 104.089 64.658 97.3689C65.49 95.3849 66.898 94.3929 68.882 94.3929C70.738 94.3929 72.146 94.7769 73.106 95.5449C74.066 96.2489 74.546 97.4969 74.546 99.2889C74.546 99.9929 74.45 100.601 74.258 101.113C74.066 101.625 73.778 102.297 73.394 103.129C71.41 107.033 69.426 111.545 67.442 116.665C65.458 121.721 63.026 128.153 60.146 135.961C60.274 135.641 59.378 138.041 57.458 143.161L54.29 151.417C53.906 152.441 53.266 153.241 52.37 153.817C51.538 154.329 50.578 154.585 49.49 154.585C48.402 154.585 47.186 154.329 45.842 153.817C44.562 153.241 43.634 152.665 43.058 152.089C40.882 147.929 38.098 141.913 34.706 134.041C31.378 126.169 28.498 118.905 26.066 112.249L24.626 108.313C23.666 105.625 22.962 103.577 22.514 102.169C22.066 100.697 21.842 99.5129 21.842 98.6169C21.842 97.3369 22.546 96.3129 23.954 95.5449C25.426 94.7769 26.834 94.3929 28.178 94.3929C28.882 94.3929 29.554 94.5529 30.194 94.8729C30.834 95.1929 31.282 95.7049 31.538 96.4089ZM122.053 141.433C123.269 141.433 124.165 141.913 124.741 142.873C125.381 143.769 125.701 144.761 125.701 145.849C125.701 147.193 125.477 148.153 125.029 148.729C124.645 149.241 123.877 149.785 122.725 150.361C120.037 151.641 116.709 152.665 112.741 153.433C108.773 154.201 104.517 154.585 99.9733 154.585C94.2773 154.585 90.0853 153.625 87.3973 151.705C84.7733 149.785 83.1413 147.481 82.5013 144.793C81.9253 142.041 81.6373 138.457 81.6373 134.041C81.6373 129.305 81.8293 124.665 82.2133 120.121C82.5973 115.513 83.2693 109.657 84.2293 102.553C84.6773 99.4809 85.8933 97.2729 87.8773 95.9289C89.8613 94.5209 92.0373 93.8169 94.4053 93.8169C96.3893 93.8169 99.6213 93.7529 104.101 93.6249L112.453 93.5289C115.909 93.5289 118.405 93.6249 119.941 93.8169C121.861 94.2009 123.269 94.6489 124.165 95.1609C125.125 95.6089 125.605 96.4089 125.605 97.5609C125.605 98.8409 125.157 100.089 124.261 101.305C123.429 102.521 122.149 103.129 120.421 103.129C118.437 103.129 115.589 103.001 111.877 102.745C108.165 102.489 105.381 102.361 103.525 102.361C101.925 102.361 100.357 102.457 98.8213 102.649C97.0293 102.777 95.7493 103.001 94.9813 103.321C94.2133 103.641 93.7653 104.185 93.6373 104.953C92.7413 111.545 92.2933 116.409 92.2933 119.545C93.7653 119.737 95.2053 119.833 96.6133 119.833C98.4053 119.833 100.325 119.737 102.373 119.545C104.421 119.353 105.733 119.225 106.309 119.161C109.701 118.841 112.613 118.681 115.045 118.681C116.453 118.681 117.509 118.937 118.213 119.449C118.981 119.961 119.365 120.665 119.365 121.561C119.365 122.969 118.981 124.057 118.213 124.825C117.509 125.593 116.229 126.169 114.373 126.553C112.133 127.001 109.349 127.353 106.021 127.609C102.757 127.865 99.5573 127.993 96.4213 127.993C95.3333 127.993 93.8293 127.929 91.9093 127.801C91.7173 131.705 91.6213 135.321 91.6213 138.649C91.6213 143.193 94.6293 145.465 100.645 145.465C103.845 145.465 106.501 145.241 108.613 144.793C110.725 144.345 113.157 143.705 115.909 142.873C118.469 141.913 120.517 141.433 122.053 141.433Z" fill="black"/>
<path d="M68.6074 53.632C68.5434 52.608 68.5114 51.072 68.5114 49.024V45.376C68.5114 42.944 68.4474 41.12 68.3194 39.904C68.1914 38.88 68.1274 36.224 68.1274 31.936C68.1274 30.4 68.5754 29.216 69.4714 28.384C70.4314 27.488 71.7114 27.04 73.3114 27.04C75.3594 27.04 76.7354 27.488 77.4394 28.384C78.1434 29.28 78.4954 30.752 78.4954 32.8V36.448L78.3994 47.008C78.3354 49.056 78.3034 52.128 78.3034 56.224L78.3994 64.096C78.4634 65.312 78.4954 67.008 78.4954 69.184C78.4954 70.912 78.5594 73.376 78.6874 76.576C78.8154 79.52 78.8794 81.728 78.8794 83.2C78.8794 84.416 78.5274 85.536 77.8234 86.56C77.1834 87.584 76.2874 88.096 75.1354 88.096C70.6554 88.096 68.4154 86.592 68.4154 83.584C68.4154 81.92 68.4794 80.064 68.6074 78.016C68.7354 76.544 68.7994 74.304 68.7994 71.296C68.7994 69.184 68.7354 66.144 68.6074 62.176C65.5994 62.432 60.4154 62.56 53.0554 62.56C48.4474 62.56 44.8634 62.56 42.3034 62.56C39.7434 62.496 37.8874 62.336 36.7354 62.08L36.6394 73.12C36.6394 73.824 36.7994 75.712 37.1194 78.784C37.4394 80.832 37.5994 82.624 37.5994 84.16C37.5994 85.12 37.0234 86.048 35.8714 86.944C34.7834 87.776 33.7594 88.192 32.7994 88.192C30.4954 88.192 28.9274 87.648 28.0954 86.56C27.2634 85.408 26.8474 83.68 26.8474 81.376L26.7514 73.792C26.6874 72.896 26.6554 71.648 26.6554 70.048C26.6554 67.68 26.5914 64.448 26.4634 60.352C26.3354 56.64 26.2714 53.952 26.2714 52.288C26.2714 49.792 26.3354 46.304 26.4634 41.824C26.5914 37.6 26.6554 34.464 26.6554 32.416C26.6554 30.368 27.1674 28.992 28.1914 28.288C29.2154 27.584 30.3674 27.232 31.6474 27.232C35.2314 27.232 37.0234 28.416 37.0234 30.784C37.0234 35.008 36.9274 39.04 36.7354 42.88C36.6074 47.744 36.5434 51.296 36.5434 53.536C38.3994 53.984 40.3514 54.272 42.3994 54.4C44.4474 54.528 47.3274 54.592 51.0394 54.592C58.5914 54.592 64.4474 54.272 68.6074 53.632ZM108.196 35.008C108.004 39.104 107.908 43.04 107.908 46.816C107.908 50.72 108.164 56.448 108.676 64C108.74 65.152 108.868 67.488 109.06 71.008C109.252 74.464 109.348 77.632 109.348 80.512C109.988 80.448 110.66 80.352 111.364 80.224C112.132 80.096 112.708 80.032 113.092 80.032C114.5 80.032 115.62 80.384 116.452 81.088C117.284 81.792 117.7 82.88 117.7 84.352C117.7 85.312 117.316 86.048 116.548 86.56C115.78 87.072 114.436 87.456 112.516 87.712C110.66 87.904 107.94 88 104.356 88C100.388 88 97.4121 87.872 95.4281 87.616C93.4441 87.36 92.0681 86.88 91.3001 86.176C90.5321 85.408 90.1481 84.288 90.1481 82.816C90.1481 81.728 90.5001 80.992 91.2041 80.608C91.9081 80.224 92.9001 80.032 94.1801 80.032L96.1961 80.128L99.3641 80.32L98.8841 68.992C98.5001 62.848 98.3081 57.216 98.3081 52.096C98.3081 49.344 98.4041 45.568 98.5961 40.768L98.7881 35.488C96.6121 35.616 94.9161 35.68 93.7001 35.68C92.2921 35.68 91.3321 35.424 90.8201 34.912C90.3721 34.4 90.1481 33.344 90.1481 31.744C90.1481 29.952 91.3641 28.8 93.7961 28.288C96.2921 27.776 100.068 27.52 105.124 27.52C109.028 27.52 111.94 27.648 113.86 27.904C115.844 28.16 116.836 28.736 116.836 29.632C116.836 31.808 116.356 33.248 115.396 33.952C114.5 34.592 112.74 34.912 110.116 34.912L108.196 35.008Z" fill="black"/>
</g>
<defs>
<clipPath id="clip0_1_2">
<rect width="147" height="167" rx="16" fill="white"/>
</clipPath>
</defs>
</svg>
